<svg id="svg" version="1.1" xmlns="http://www.w3.org/2000/svg" xmlns:xlink="http://www.w3.org/1999/xlink" width="400" height="240" viewBox="0, 0, 400,240"><g id="svgg"><path id="path0" d="M219.366 10.246 C 219.257 10.355,181.767 10.502,136.054 10.572 C 70.528 10.673,52.718 10.764,51.888 11.001 C 47.974 12.119,45.384 14.548,44.090 18.316 L 43.577 19.808 43.510 102.161 C 43.466 156.220,43.526 185.202,43.685 186.517 C 44.130 190.220,46.147 193.301,49.186 194.921 C 51.965 196.402,51.915 196.398,68.418 196.402 C 85.062 196.406,83.884 196.281,84.358 198.101 C 85.735 203.387,87.966 207.235,91.981 211.250 C 93.062 212.332,93.904 213.248,93.852 213.287 C 93.611 213.467,88.340 214.170,87.246 214.168 C 86.570 214.167,85.112 214.317,84.005 214.501 C 82.898 214.686,81.074 214.907,79.952 214.992 C 75.891 215.300,74.326 216.602,74.316 219.681 C 74.304 223.333,76.415 224.840,80.684 224.226 C 81.536 224.103,83.082 223.936,84.120 223.854 L 86.007 223.705 85.842 224.453 C 85.403 226.454,87.064 229.069,89.010 229.441 C 90.455 229.717,97.680 229.320,99.912 228.841 C 100.489 228.718,102.365 228.541,104.082 228.449 C 105.798 228.357,108.067 228.131,109.124 227.947 C 110.180 227.762,112.071 227.608,113.325 227.604 C 114.580 227.599,116.741 227.441,118.127 227.251 C 119.514 227.061,121.783 226.897,123.169 226.886 C 124.556 226.875,126.447 226.768,127.371 226.647 C 128.295 226.527,131.375 226.315,134.214 226.176 C 137.053 226.036,140.791 225.762,142.521 225.566 C 144.251 225.370,147.600 225.208,149.964 225.205 C 152.328 225.202,156.098 225.042,158.343 224.848 C 160.605 224.653,165.316 224.492,168.908 224.487 C 172.473 224.482,179.496 224.321,184.514 224.129 C 196.195 223.683,212.919 223.683,224.850 224.129 C 230.000 224.322,237.293 224.483,241.056 224.489 C 244.820 224.494,248.872 224.608,250.060 224.742 C 251.248 224.876,255.516 225.081,259.544 225.199 C 263.571 225.316,267.785 225.528,268.908 225.670 C 270.030 225.812,273.325 226.039,276.230 226.176 C 279.136 226.312,282.323 226.522,283.313 226.642 C 284.304 226.763,286.357 226.871,287.875 226.884 C 289.394 226.896,291.717 227.063,293.037 227.254 C 294.358 227.445,296.519 227.604,297.839 227.607 C 299.160 227.610,301.212 227.766,302.401 227.954 C 303.589 228.141,305.966 228.367,307.683 228.456 C 309.400 228.544,311.236 228.713,311.765 228.831 C 314.197 229.373,322.393 229.618,323.532 229.183 C 325.199 228.547,325.858 227.511,326.000 225.305 L 326.115 223.502 328.664 223.658 C 330.066 223.744,331.636 223.921,332.154 224.052 C 337.052 225.291,340.607 223.496,340.557 219.808 C 340.510 216.337,338.961 215.294,333.247 214.885 C 331.522 214.762,330.010 214.599,329.885 214.522 C 329.761 214.445,328.031 214.291,326.041 214.180 C 324.051 214.070,322.353 213.910,322.269 213.826 C 322.184 213.741,323.119 212.668,324.346 211.441 C 327.977 207.810,330.120 204.346,331.502 199.880 C 332.815 195.637,333.229 193.680,333.243 191.648 L 333.253 190.139 348.319 190.266 C 356.606 190.335,364.050 190.415,364.863 190.444 C 367.500 190.536,370.132 188.682,370.989 186.128 C 371.495 184.624,371.561 164.634,371.066 162.933 C 370.306 160.319,368.839 158.917,366.195 158.280 L 364.469 157.863 364.467 130.628 C 364.465 98.713,364.655 100.817,361.585 98.561 C 360.705 97.914,322.841 60.202,315.516 52.676 C 312.936 50.026,310.863 48.105,310.204 47.754 L 309.124 47.179 276.831 47.179 C 259.070 47.179,244.241 47.262,243.878 47.364 L 243.217 47.548 243.215 35.959 C 243.212 19.393,242.835 16.992,239.756 13.914 C 237.281 11.440,235.098 10.819,227.851 10.529 C 224.880 10.410,221.800 10.253,221.007 10.180 C 220.214 10.107,219.475 10.137,219.366 10.246 M222.269 10.475 C 222.566 10.555,222.809 10.722,222.809 10.846 C 222.809 10.971,222.707 11.009,222.581 10.932 C 222.456 10.854,222.237 11.008,222.095 11.272 C 221.582 12.232,220.982 12.320,219.776 11.613 C 218.131 10.649,219.901 9.841,222.269 10.475 M221.564 12.905 C 221.474 13.379,220.479 13.613,220.113 13.247 C 219.731 12.865,220.134 12.485,220.920 12.485 C 221.480 12.485,221.626 12.580,221.564 12.905 M206.122 19.935 C 206.716 20.226,208.950 20.309,218.848 20.408 C 232.256 20.542,232.083 20.520,232.792 22.217 C 233.375 23.611,233.297 183.705,232.713 184.874 C 231.787 186.727,241.015 186.554,143.217 186.554 C 45.419 186.554,54.648 186.727,53.722 184.874 C 53.138 183.705,53.060 23.611,53.643 22.217 C 54.417 20.363,47.749 20.543,120.768 20.408 C 156.621 20.342,186.095 20.197,186.267 20.086 C 187.364 19.378,204.715 19.245,206.122 19.935 M304.870 58.234 C 305.992 58.701,352.740 105.308,353.443 106.661 C 353.898 107.538,353.908 108.236,353.845 136.007 L 353.782 164.455 353.116 165.121 L 352.450 165.786 341.951 165.786 C 329.763 165.786,330.755 165.944,328.183 163.597 C 313.666 150.355,293.444 150.268,278.872 163.383 C 275.955 166.009,277.344 165.777,264.063 165.857 C 250.762 165.937,250.885 165.952,250.432 164.270 C 250.253 163.605,250.195 147.576,250.238 111.170 L 250.300 59.022 250.974 58.443 L 251.647 57.863 277.812 57.863 C 300.867 57.863,304.083 57.907,304.870 58.234 M268.644 72.986 C 266.618 73.340,265.204 74.377,264.386 76.108 C 263.851 77.239,263.772 103.480,264.299 104.966 C 264.702 106.102,266.213 107.465,267.434 107.794 C 269.334 108.306,324.313 108.011,325.373 107.484 C 328.268 106.044,329.569 103.116,328.433 100.600 C 327.760 99.110,302.921 74.193,301.321 73.403 C 300.179 72.839,271.568 72.474,268.644 72.986 M268.945 172.274 C 268.900 172.527,268.618 173.224,268.319 173.822 C 268.020 174.420,267.704 175.210,267.615 175.576 C 267.226 177.193,267.236 177.191,259.664 177.191 L 252.821 177.191 252.818 174.970 C 252.816 173.748,252.752 172.516,252.676 172.231 L 252.536 171.712 260.782 171.763 C 268.762 171.812,269.025 171.829,268.945 172.274 M358.223 174.448 L 358.223 177.191 349.257 177.191 C 341.020 177.191,340.260 177.157,339.915 176.771 C 339.486 176.290,337.780 172.160,337.918 171.936 C 337.968 171.855,342.558 171.770,348.116 171.747 L 358.223 171.705 358.223 174.448 M245.138 189.698 C 245.806 189.959,248.798 190.042,259.692 190.102 L 273.405 190.178 273.669 191.908 C 273.814 192.859,273.985 194.207,274.050 194.903 C 274.444 199.122,277.025 205.057,280.097 208.804 C 281.692 210.750,281.841 210.633,278.147 210.333 C 276.461 210.196,273.664 210.082,271.934 210.079 C 270.203 210.077,268.085 209.964,267.227 209.829 C 266.369 209.694,262.155 209.479,257.863 209.351 C 253.571 209.223,248.926 209.018,247.539 208.895 C 246.152 208.771,241.507 208.662,237.215 208.651 C 232.923 208.640,225.738 208.474,221.248 208.282 C 210.818 207.837,193.901 207.838,182.833 208.284 C 178.079 208.476,171.056 208.636,167.227 208.641 C 163.204 208.646,158.541 208.798,156.182 209.002 C 153.938 209.195,150.210 209.358,147.899 209.363 C 145.588 209.368,142.725 209.479,141.537 209.610 C 137.932 210.006,135.654 210.163,135.654 210.014 C 135.654 209.937,136.253 209.038,136.985 208.018 C 139.367 204.698,140.691 201.911,141.649 198.199 L 142.082 196.519 188.148 196.399 L 234.214 196.279 235.473 195.762 C 238.479 194.529,240.560 192.684,241.733 190.215 C 242.735 188.105,242.666 188.159,243.532 188.801 C 243.953 189.114,244.676 189.517,245.138 189.698 " stroke="none" fill="#3e0c06" fill-rule="evenodd"></path><path id="path1" d="M187.720 21.462 C 186.076 22.050,187.224 20.798,171.398 39.256 C 121.936 96.944,124.833 93.637,123.742 93.637 C 122.876 93.637,122.678 93.525,103.722 82.281 C 83.806 70.467,84.069 70.608,82.937 71.148 C 80.912 72.114,81.195 72.783,87.563 82.084 C 92.860 89.819,101.495 102.421,114.687 121.669 C 118.737 127.578,123.783 134.952,125.900 138.055 C 132.144 147.207,132.113 147.203,136.705 139.350 C 138.009 137.119,145.853 123.733,154.137 109.604 C 162.420 95.474,171.033 80.780,173.277 76.951 C 175.521 73.121,182.519 61.182,188.828 50.420 C 195.137 39.658,201.255 29.220,202.423 27.225 C 205.326 22.269,205.417 21.966,204.177 21.401 C 203.280 20.992,188.885 21.046,187.720 21.462 " stroke="none" fill="#fafafa" fill-rule="evenodd"></path><path id="path2" d="M188.475 19.571 C 188.277 19.618,187.710 19.722,187.215 19.803 C 184.520 20.243,187.032 20.408,196.399 20.408 C 205.767 20.408,207.399 20.303,205.942 19.796 C 205.415 19.612,189.191 19.404,188.475 19.571 M250.974 58.443 L 250.300 59.022 250.238 111.170 C 250.195 147.576,250.253 163.605,250.432 164.270 C 250.885 165.952,250.762 165.937,264.063 165.857 C 277.344 165.777,275.955 166.009,278.872 163.383 C 293.444 150.268,313.666 150.355,328.183 163.597 C 330.755 165.944,329.763 165.786,341.951 165.786 L 352.450 165.786 353.116 165.121 L 353.782 164.455 353.845 136.007 C 353.908 108.236,353.898 107.538,353.443 106.661 C 352.740 105.308,305.992 58.701,304.870 58.234 C 304.083 57.907,300.867 57.863,277.812 57.863 L 251.647 57.863 250.974 58.443 M301.321 73.403 C 302.921 74.193,327.760 99.110,328.433 100.600 C 329.569 103.116,328.268 106.044,325.373 107.484 C 324.313 108.011,269.334 108.306,267.434 107.794 C 266.213 107.465,264.702 106.102,264.299 104.966 C 263.772 103.480,263.851 77.239,264.386 76.108 C 265.204 74.377,266.618 73.340,268.644 72.986 C 271.568 72.474,300.179 72.839,301.321 73.403 M252.676 172.231 C 252.752 172.516,252.816 173.748,252.818 174.970 L 252.821 177.191 259.664 177.191 C 267.236 177.191,267.226 177.193,267.615 175.576 C 267.704 175.210,268.020 174.420,268.319 173.822 C 269.415 171.627,270.125 171.821,260.782 171.763 L 252.536 171.712 252.676 172.231 M337.918 171.936 C 337.780 172.160,339.486 176.290,339.915 176.771 C 340.260 177.157,341.020 177.191,349.257 177.191 L 358.223 177.191 358.223 174.448 L 358.223 171.705 348.116 171.747 C 342.558 171.770,337.968 171.855,337.918 171.936 " stroke="none" fill="#943353" fill-rule="evenodd"></path><path id="path3" d="M219.366 10.504 C 219.305 10.603,219.992 10.685,220.892 10.686 C 221.791 10.686,222.402 10.607,222.248 10.509 C 221.882 10.276,219.508 10.272,219.366 10.504 M187.035 20.880 C 186.705 20.985,185.678 21.381,184.754 21.760 L 183.073 22.449 119.455 22.569 L 55.836 22.689 55.532 23.289 C 54.941 24.455,55.216 183.860,55.810 184.294 C 56.478 184.783,230.291 184.691,230.780 184.202 C 231.236 183.746,231.357 24.187,230.903 23.289 L 230.598 22.689 219.180 22.569 L 207.761 22.449 206.822 21.802 C 206.305 21.446,205.578 21.041,205.206 20.902 C 204.411 20.603,187.968 20.584,187.035 20.880 M204.177 21.401 C 205.417 21.966,205.326 22.269,202.423 27.225 C 201.255 29.220,195.137 39.658,188.828 50.420 C 182.519 61.182,175.521 73.121,173.277 76.951 C 171.033 80.780,162.420 95.474,154.137 109.604 C 145.853 123.733,138.009 137.119,136.705 139.350 C 132.113 147.203,132.144 147.207,125.900 138.055 C 123.783 134.952,118.737 127.578,114.687 121.669 C 101.495 102.421,92.860 89.819,87.563 82.084 C 81.195 72.783,80.912 72.114,82.937 71.148 C 84.069 70.608,83.806 70.467,103.722 82.281 C 122.678 93.525,122.876 93.637,123.742 93.637 C 124.833 93.637,121.936 96.944,171.398 39.256 C 187.224 20.798,186.076 22.050,187.720 21.462 C 188.885 21.046,203.280 20.992,204.177 21.401 " stroke="none" fill="#4c9474" fill-rule="evenodd"></path><path id="path4" d="M218.862 10.781 C 218.604 11.199,220.831 12.292,221.362 12.009 C 221.905 11.717,222.420 10.884,222.150 10.732 C 221.755 10.510,219.448 10.568,219.448 10.800 C 219.448 10.934,219.333 11.044,219.194 11.044 C 219.054 11.044,219.006 10.936,219.088 10.804 C 219.169 10.672,219.182 10.564,219.116 10.564 C 219.050 10.564,218.936 10.662,218.862 10.781 M220.035 12.746 C 219.794 13.136,220.277 13.497,220.918 13.406 C 221.812 13.279,221.813 12.485,220.920 12.485 C 220.522 12.485,220.124 12.602,220.035 12.746 M120.528 20.408 C 58.350 20.523,55.548 20.547,54.783 20.964 C 53.178 21.840,53.301 14.985,53.302 103.534 C 53.302 193.611,53.131 185.210,54.982 186.134 C 56.289 186.787,230.146 186.787,231.453 186.134 C 233.303 185.210,233.132 193.611,233.133 103.534 C 233.133 14.977,233.256 21.826,231.652 20.978 C 230.310 20.269,221.113 20.222,120.528 20.408 M205.206 20.902 C 205.578 21.041,206.305 21.446,206.822 21.802 L 207.761 22.449 219.180 22.569 L 230.598 22.689 230.903 23.289 C 231.357 24.187,231.236 183.746,230.780 184.202 C 230.291 184.691,56.478 184.783,55.810 184.294 C 55.216 183.860,54.941 24.455,55.532 23.289 L 55.836 22.689 119.455 22.569 L 183.073 22.449 184.754 21.760 C 185.678 21.381,186.705 20.985,187.035 20.880 C 187.968 20.584,204.411 20.603,205.206 20.902 " stroke="none" fill="#4c8464" fill-rule="evenodd"></path></g></svg>